<!-- icon666.com - MILLIONS vector ICONS FREE --><svg version="1.1" id="Layer_1" xmlns="http://www.w3.org/2000/svg" xmlns:xlink="http://www.w3.org/1999/xlink" x="0px" y="0px" viewBox="0 0 511.985 511.985" style="enable-background:new 0 0 511.985 511.985;" xml:space="preserve"><polygon style="fill: rgb(163, 29, 30);" points="255.988,27.999 21.995,120.668 25.995,144.667 493.325,136.668 493.325,120.668 " fill="#A0D468"></polygon><rect x="106.492" y="298.492" style="" width="292.99" height="26.999" fill="#965353"></rect><g><rect x="384.482" y="373.312" style="" width="101" height="27.672" fill="#FFE1C5"></rect><rect x="21.992" y="373.312" style="" width="97" height="33.672" fill="#FFE1C5"></rect><rect x="235.492" y="337.492" style="" width="47.999" height="161.99" fill="#FFE1C5"></rect></g><path d="M490.638,234.649c-5.875,0-10.656,4.781-10.656,10.687v117.309h-95.997c-5.891,0-10.656,4.78-10.656,10.687v32v95.996 c0,5.875,4.766,10.656,10.656,10.656s10.656-4.781,10.656-10.656v-85.341h85.341v85.341c0,5.875,4.781,10.656,10.656,10.656 c5.905,0,10.687-4.781,10.687-10.656v-95.996v-32V245.336C501.324,239.43,496.543,234.649,490.638,234.649z M394.64,394.644v-10.656 h85.341v10.656H394.64z" fill="#000000"></path><path d="M127.992,362.645H31.995V245.336c0-5.906-4.773-10.687-10.664-10.687c-5.89,0-10.671,4.781-10.671,10.687v127.996v32v95.996 c0,5.875,4.781,10.656,10.671,10.656c5.891,0,10.664-4.781,10.664-10.656v-85.341h85.333v85.341c0,5.875,4.773,10.656,10.664,10.656 c5.891,0,10.664-4.781,10.664-10.656v-95.996v-32C138.656,367.426,133.883,362.645,127.992,362.645z M31.995,383.988h85.333v10.656 H31.995V383.988z" fill="#000000"></path><path d="M494.293,107.309L266.652,24.531V10.656C266.652,4.781,261.879,0,255.988,0c-5.891,0-10.664,4.781-10.664,10.656v13.875 L17.683,107.309c-4.21,1.531-7.023,5.531-7.023,10.031v21.312c0,5.906,4.781,10.687,10.671,10.687h223.993v138.652H106.657 c-5.891,0-10.664,4.781-10.664,10.656v31.999c0,5.906,4.773,10.688,10.664,10.688h117.332v149.308H191.99 c-5.89,0-10.664,4.78-10.664,10.687c0,5.875,4.773,10.656,10.664,10.656h42.663h42.679h42.654c5.891,0,10.656-4.781,10.656-10.656 c0-5.906-4.766-10.687-10.656-10.687h-31.999V341.334h117.341c5.875,0,10.655-4.781,10.655-10.688v-31.999 c0-5.875-4.78-10.656-10.655-10.656H266.652V149.339h223.985c5.905,0,10.687-4.781,10.687-10.687V117.34 C501.324,112.84,498.512,108.841,494.293,107.309z M266.652,490.641h-21.328V341.334h21.328V490.641z M394.64,319.99H277.332 h-42.679H117.328v-10.656H394.64V319.99z M479.981,127.996H31.995v-3.187l223.993-81.466l223.993,81.466V127.996z" fill="#000000"></path></svg>