<!-- icon666.com - MILLIONS vector ICONS FREE --><svg version="1.1" id="Layer_1" xmlns="http://www.w3.org/2000/svg" xmlns:xlink="http://www.w3.org/1999/xlink" x="0px" y="0px" viewBox="0 0 512 512" style="enable-background:new 0 0 512 512;" xml:space="preserve"><g><g><path d="M414.989,324.716v-48.505H97.011v48.505h134.737v145.516h-40.421V486.4h40.421h48.505h40.421v-16.168h-40.421V324.716 H414.989z M264.084,470.232h-16.168V324.716h16.168V470.232z M231.747,308.547H113.179v-16.168h285.642v16.168H280.253H231.747z"></path></g></g><g><g><path d="M48.505,351.663v-88.926c0-22.289-18.132-40.421-40.421-40.421H0v177.853h10.779v78.147h16.168v-78.147h70.063v78.147 h16.168v-78.147h21.558v-48.505H48.505z M118.568,384h-102.4V239.869c9.41,3.336,16.168,12.328,16.168,22.868v105.095h86.232V384z "></path></g></g><g><g><path d="M503.916,222.316c-22.289,0-40.421,18.132-40.421,40.421v88.926h-86.232v48.505h21.558v78.147h16.168v-78.147h70.063 v78.147h16.168v-78.147H512V222.316H503.916z M495.832,384h-102.4v-16.168h86.232V262.737c0-10.54,6.758-19.531,16.168-22.868V384 z"></path></g></g><g><g><path d="M317.435,125.305c-3.629-27.719-25.631-49.721-53.35-53.35V25.6h-16.168v46.355c-27.719,3.629-49.721,25.631-53.35,53.35 h-14.018v16.168h13.474h123.958h13.474v-16.168H317.435z M210.904,125.305c3.83-21.418,22.594-37.726,45.096-37.726 s41.266,16.309,45.096,37.726H210.904z"></path></g></g><g><g><rect x="176.506" y="162.135" transform="matrix(0.8321 -0.5547 0.5547 0.8321 -63.4176 130.9739)" width="16.169" height="16.169"></rect></g></g><g><g><rect x="122.694" y="198.009" transform="matrix(0.8321 -0.5547 0.5547 0.8321 -92.3532 107.1504)" width="16.169" height="16.169"></rect></g></g><g><g><rect x="149.6" y="180.073" transform="matrix(0.8321 -0.5547 0.5547 0.8321 -77.886 119.0623)" width="16.169" height="16.169"></rect></g></g><g><g><rect x="95.783" y="215.936" transform="matrix(0.8321 -0.5547 0.5547 0.8321 -106.8164 95.2336)" width="16.169" height="16.169"></rect></g></g><g><g><rect x="346.239" y="180.065" transform="matrix(0.5547 -0.8321 0.8321 0.5547 1.2354 378.6078)" width="16.169" height="16.169"></rect></g></g><g><g><rect x="319.323" y="162.105" transform="matrix(0.5547 -0.8321 0.8321 0.5547 4.1932 348.2139)" width="16.169" height="16.169"></rect></g></g><g><g><rect x="373.142" y="198.003" transform="matrix(0.5547 -0.8321 0.8321 0.5547 -1.7093 408.9812)" width="16.169" height="16.169"></rect></g></g><g><g><rect x="400.027" y="215.919" transform="matrix(0.5547 -0.832 0.832 0.5547 -4.6558 439.306)" width="16.168" height="16.168"></rect></g></g><g><g><rect x="179.788" y="213.539" transform="matrix(0.6402 -0.7682 0.7682 0.6402 -102.6565 224.0632)" width="16.168" height="16.168"></rect></g></g><g><g><rect x="221.171" y="163.857" transform="matrix(0.6402 -0.7682 0.7682 0.6402 -49.6013 237.979)" width="16.168" height="16.168"></rect></g></g><g><g><rect x="200.482" y="188.691" transform="matrix(0.6402 -0.7682 0.7682 0.6402 -76.1222 231.0207)" width="16.168" height="16.168"></rect></g></g><g><g><rect x="295.343" y="188.697" transform="matrix(0.7682 -0.6402 0.6402 0.7682 -55.6473 239.8682)" width="16.168" height="16.168"></rect></g></g><g><g><rect x="316.074" y="213.532" transform="matrix(0.7682 -0.6402 0.6402 0.7682 -66.7409 258.8985)" width="16.168" height="16.168"></rect></g></g><g><g><rect x="274.638" y="163.854" transform="matrix(0.7682 -0.6402 0.6402 0.7682 -44.5416 220.8557)" width="16.168" height="16.168"></rect></g></g></svg>